HIERARCHY
ROOT Hips
{
	OFFSET 0.00000 0.00000 0.00000
	CHANNELS 6 Xposition Yposition Zposition Yrotation Zrotation Xrotation 
	JOINT Lumbar
	{
		OFFSET 0 0 0
		CHANNELS 3 Zrotation Xrotation Yrotation
		JOINT Neck
		{
			OFFSET 0.00 0.2701 0.00
			CHANNELS 3 Zrotation Xrotation Yrotation
			End Site
			{
				OFFSET 0.00 0.1379 0.00
			}
		}
		JOINT RightShoulder
		{
			OFFSET 0.0119 0.2289 0.1181
			CHANNELS 3 Zrotation Xrotation Yrotation
			JOINT RightElbow
			{
				OFFSET 0.00 -0.1475 0.00
				CHANNELS 2 Zrotation Yrotation
				JOINT RightWrist
				{
					OFFSET 0.00 -0.1605 0.00
					CHANNELS 2 Zrotation Xrotation
					End Site
					{
						OFFSET 0.0040 -0.1068 0.0006
					}
				}
			}
		}
		JOINT LeftShoulder
		{
			OFFSET 0.0119 0.2289 -0.1181
			CHANNELS 3 Zrotation Xrotation Yrotation
			JOINT LeftElbow
			{
				OFFSET 0.00 -0.1475 0.00
				CHANNELS 2 Zrotation Yrotation
				JOINT LeftWrist
				{
					OFFSET 0.00 -0.1605 0.00
					CHANNELS 2 Zrotation Xrotation
					End Site
					{
						OFFSET 0.0040 -0.1068 -0.0006
					}
				}
			}
		}
	}
	JOINT RightHip
	{
		OFFSET 0.0316 -0.0424 0.0458
		CHANNELS 3 Zrotation Xrotation Yrotation
		JOINT RightKnee
		{
			OFFSET 0.00 -0.2438 0.00
			CHANNELS 1 Zrotation
			JOINT RightAnkle
			{
				OFFSET 0.00 -0.2449 0.00
				CHANNELS 3 Zrotation Xrotation Yrotation
				End Site
				{
					OFFSET 0.1237 -0.0542 0.0051
				}
			}
		}
	}
	JOINT LeftHip
	{
		OFFSET 0.0316 -0.0424 -0.0458
		CHANNELS 3 Zrotation Xrotation Yrotation
		JOINT LeftKnee
		{
			OFFSET 0.00 -0.2438 0.00
			CHANNELS 1 Zrotation
			JOINT LeftAnkle
			{
				OFFSET 0.00 -0.2449 0.00
				CHANNELS 3 Zrotation Xrotation Yrotation
				End Site
				{
					OFFSET 0.1237 -0.0542 -0.0051
				}
			}
		}
	}
}
MOTION
Frames: 34
Frame Time: 0.02
-0.15296 0.5817 0.04053 206.04055 0 -3.09937 9.37448 3.4342 -6.40641 -15.10527 2.54537 -2.61176 27.09649 -19.12431 25.24426 90.73988 52.20425 -9.12916 7.68473 35.321 18.01058 -9.86273 81.45254 -36.48588 -27.04742 -5.28501 -6.70478 7.84198 14.41088 -4.121 0.75274 -2.13557 -2.6557 -3.38517 -0.23471 -9.71523 -6.52783 5.61325 4.08527 6.11227
-0.1528 0.58166 0.04061 206.05477 0 -3.0975 9.04414 3.39098 -6.20947 -13.77815 2.80663 -2.44592 25.23391 -19.26195 22.03092 93.14012 53.61707 -11.90964 6.52402 30.67106 16.784 -7.48735 84.77311 -37.20878 -27.00906 -5.09686 -6.72709 7.81309 14.09981 -4.05627 0.77074 -2.08272 -2.37416 -3.41452 -0.2411 -9.68132 -6.44697 5.5948 4.06794 6.07407
-0.15263 0.58163 0.04072 206.11843 0 -3.08531 8.67382 3.37256 -5.95431 -12.4115 2.83157 -2.4242 22.84717 -19.13553 18.67965 95.8053 56.76602 -16.8766 4.47309 26.14352 15.63459 -5.076 87.71252 -38.16089 -27.08998 -4.82926 -6.75773 7.79226 14.1322 -3.99097 0.76203 -2.13444 -2.48743 -3.43027 -0.25951 -9.70243 -6.38328 5.56942 4.05743 6.04181
-0.15246 0.58159 0.04081 206.16695 0 -3.07717 8.32355 3.3415 -5.72797 -11.07503 2.9547 -2.33889 20.71307 -19.12174 15.39369 98.2905 59.08921 -20.80335 2.88509 21.61199 14.47244 -2.71313 90.77211 -39.05129 -27.18272 -4.58368 -6.78513 7.76746 13.98689 -3.92525 0.76719 -2.13455 -2.40698 -3.45034 -0.27277 -9.70378 -6.314 5.54712 4.04259 6.00497
-0.15229 0.58156 0.04091 206.18552 0 -3.07161 7.96366 3.31659 -5.49214 -9.67881 3.11283 -2.25131 18.50217 -19.13061 12.08183 101.04397 61.56607 -24.93147 1.0635 16.84322 13.21295 -0.21176 94.06801 -39.78979 -27.01813 -4.38906 -6.81031 7.74259 13.89989 -3.86157 0.76753 -2.14391 -2.35511 -3.47854 -0.28475 -9.68265 -6.23465 5.52491 4.03214 5.97487
-0.15212 0.58152 0.041 206.27798 0 -3.05831 7.6153 3.28461 -5.26245 -8.40266 3.14327 -2.20068 16.3377 -19.03407 8.80267 103.28917 64.1256 -29.14925 -0.48768 12.61145 12.17852 2.00713 96.77381 -40.87993 -27.40494 -4.07506 -6.84207 7.7205 13.78902 -3.79386 0.77023 -2.16297 -2.35317 -3.48655 -0.30215 -9.72179 -6.18045 5.50082 4.01454 5.93272
-0.15194 0.58148 0.04108 206.56054 0 -3.02566 7.30426 3.22715 -5.05846 -7.44467 2.88027 -2.21402 14.36796 -18.69458 5.57707 104.14252 66.62676 -33.18363 -1.07799 9.75381 11.71212 3.45408 97.97724 -42.99343 -29.34135 -3.42144 -6.88988 7.70162 13.48534 -3.71474 0.79086 -2.16967 -2.34792 -3.44128 -0.33279 -9.91066 -6.19369 5.47483 3.97476 5.85436
-0.15175 0.58144 0.04115 206.91582 0 -2.98565 7.00716 3.1617 -4.86321 -6.61392 2.497 -2.25919 12.47474 -18.26154 2.40426 104.46177 69.1358 -37.2146 -1.36735 7.44841 11.47593 4.61172 98.59387 -45.43097 -31.81438 -2.65667 -6.94404 7.68583 13.15682 -3.63174 0.81369 -2.18565 -2.39035 -3.37631 -0.36828 -10.15877 -6.23138 5.44697 3.92779 5.76409
-0.15156 0.58141 0.04122 207.23902 0 -2.94934 6.7067 3.09969 -4.66783 -5.74103 2.1688 -2.29076 10.59007 -17.88403 -0.74636 104.9711 71.54174 -41.1789 -1.79305 4.94402 11.15702 5.89116 99.45363 -47.64556 -34.00433 -1.96297 -6.99528 7.67051 12.87334 -3.55094 0.83189 -2.20769 -2.4457 -3.32086 -0.40074 -10.38204 -6.25653 5.41894 3.88472 5.68041
-0.15137 0.58137 0.04131 207.56039 0 -2.91121 6.39234 3.03911 -4.45555 -4.8009 1.83155 -2.32388 8.50932 -17.44501 -4.1002 105.70282 74.39326 -45.50515 -2.2484 2.22577 10.74853 7.21462 100.39322 -50.18481 -36.36994 -1.17988 -7.04684 7.6478 12.46336 -3.46838 0.86408 -2.19135 -2.37329 -3.26244 -0.43702 -10.59895 -6.28824 5.39485 3.83919 5.59197
-0.15119 0.58134 0.04136 207.90155 0 -2.8752 6.11066 2.97365 -4.2796 -4.031 1.48641 -2.35933 6.85536 -17.11189 -7.01228 105.85269 76.3398 -49.05107 -2.56271 0.08061 10.58006 8.37483 101.04017 -52.12576 -38.4884 -0.55727 -7.09928 7.64078 12.30091 -3.38841 0.86853 -2.25395 -2.56699 -3.20585 -0.46644 -10.84183 -6.31192 5.36234 3.79702 5.5105
-0.15105 0.58135 0.0413 208.28478 0 -2.84741 5.91719 2.89356 -4.21713 -3.70615 1.1617 -2.39343 6.42356 -17.12448 -8.75195 104.42317 75.39363 -50.40889 -2.52458 -0.59888 11.01894 9.17571 100.95304 -52.2943 -39.85164 -0.40967 -7.15138 7.67915 12.87708 -3.31827 0.79144 -2.54796 -3.53783 -3.15787 -0.47494 -11.14711 -6.30702 5.3058 3.76544 5.45154
-0.15093 0.58137 0.04121 208.6842 0 -2.82194 5.7562 2.80925 -4.18868 -3.54769 0.83237 -2.42802 6.41116 -17.24201 -10.04227 102.44381 73.59498 -50.97774 -2.35682 -0.7242 11.69012 9.8187 100.60534 -51.85311 -40.93549 -0.42754 -7.2043 7.73266 13.69274 -3.25065 0.68734 -2.9176 -4.76319 -3.11273 -0.47645 -11.47523 -6.29323 5.24114 3.7375 5.3999
-0.15081 0.58138 0.04114 209.07251 0 -2.79506 5.57946 2.7288 -4.13452 -3.30874 0.49755 -2.46164 6.16664 -17.29357 -11.51419 100.78342 72.44241 -51.9181 -2.26853 -1.11639 12.25487 10.51963 100.42602 -51.72036 -42.10886 -0.36627 -7.25761 7.77733 14.36453 -3.18066 0.59858 -3.24185 -5.8343 -3.06719 -0.48164 -11.7892 -6.28369 5.181 3.70816 5.34469
-0.15066 0.5814 0.04105 209.47916 0 -2.76941 5.40679 2.63998 -4.12256 -3.09316 0.18901 -2.49967 6.09361 -17.42105 -13.07738 98.81553 70.22359 -52.80157 -2.08539 -1.42771 12.83433 11.26684 100.02001 -51.47847 -43.46137 -0.3153 -7.30802 7.8303 15.1822 -3.11535 0.49679 -3.61322 -7.06885 -3.01719 -0.4849 -12.12118 -6.27401 5.11718 3.67762 5.29019
-0.15057 0.58142 0.04098 209.85061 0 -2.74186 5.23388 2.56757 -4.03234 -2.86881 -0.17199 -2.52816 5.76975 -17.41385 -14.34747 97.36113 69.99223 -53.6203 -2.07048 -1.7807 13.43158 11.88637 100.02576 -51.30018 -44.36462 -0.28665 -7.36448 7.86965 15.7549 -3.04136 0.41587 -3.904 -8.02446 -2.97743 -0.49044 -12.42033 -6.26231 5.05925 3.65042 5.23599
-0.15064 0.58141 0.04098 210.11921 0 -2.70831 5.04671 2.54272 -3.70338 -2.56174 -0.69059 -2.53003 4.58531 -17.03497 -14.89031 97.49001 75.70791 -54.40431 -2.57102 -2.40702 14.05185 12.17101 101.28787 -51.57327 -44.11752 -0.25338 -7.43824 7.86651 15.57734 -2.93918 0.39769 -3.95596 -8.13157 -2.96517 -0.50414 -12.62253 -6.24612 5.01842 3.63248 5.18179
-0.15077 0.5814 0.041 210.35163 0 -2.67284 4.85931 2.53436 -3.29713 -2.243 -1.25821 -2.52214 3.14591 -16.51394 -15.15809 98.15136 83.39868 -55.15378 -3.24223 -3.09275 14.67498 12.33712 102.96512 -51.90823 -43.42204 -0.24181 -7.51789 7.84932 15.14789 -2.82889 0.4017 -3.92378 -7.95171 -2.96329 -0.52033 -12.79069 -6.22829 4.98404 3.61768 5.12758
-0.15088 0.5814 0.04102 210.60156 0 -2.6384 4.6755 2.5177 -2.93553 -1.94037 -1.79412 -2.51865 1.86564 -16.0398 -15.57162 98.55159 90.03025 -55.95794 -3.82532 -3.73947 15.27565 12.57379 104.41998 -52.12753 -42.91368 -0.2383 -7.5943 7.83931 14.84388 -2.72465 0.39653 -3.92855 -7.91366 -2.95678 -0.53524 -12.97469 -6.2118 4.94741 3.60081 5.07268
-0.15096 0.58139 0.04102 210.84822 0 -2.60332 4.47754 2.50427 -2.53477 -1.59716 -2.37166 -2.51532 0.41709 -15.63848 -15.88609 99.01378 97.34511 -56.5926 -4.45212 -4.41805 15.97447 12.7378 106.01135 -52.68672 -42.4626 -0.16655 -7.67312 7.82651 14.50201 -2.6104 0.38663 -3.94124 -7.83713 -2.94982 -0.55048 -13.15816 -6.19247 4.90747 3.58661 5.02063
-0.1511 0.58138 0.04106 211.09212 0 -2.56913 4.30929 2.48812 -2.19697 -1.33459 -2.87208 -2.50936 -0.74659 -15.05734 -16.3421 99.47973 103.6784 -57.55402 -5.02531 -5.05062 16.46578 13.02267 107.41594 -52.57139 -41.79385 -0.23781 -7.74832 7.81593 14.17595 -2.51516 0.39219 -3.91669 -7.76836 -2.94641 -0.56576 -13.33408 -6.17882 4.87625 3.56774 4.96297
-0.15136 0.58137 0.0412 211.34351 0 -2.53767 4.21677 2.46021 -2.05015 -1.28733 -3.16441 -2.49836 -1.06703 -13.95391 -17.3034 99.83719 107.16445 -59.67929 -5.45245 -5.55427 16.38803 13.7099 108.24455 -50.48671 -40.59437 -0.71648 -7.81205 7.81549 13.95501 -2.47331 0.43519 -3.80745 -7.79783 -2.94873 -0.58042 -13.4996 -6.18104 4.86599 3.53351 4.88609
-0.15168 0.58136 0.04138 211.59209 0 -2.50719 4.15516 2.42911 -1.96941 -1.32256 -3.37435 -2.48512 -1.09351 -12.68491 -18.40964 100.18115 109.54341 -62.0958 -5.81328 -6.01026 16.09945 14.5166 108.86508 -47.74086 -39.19976 -1.33427 -7.87194 7.81761 13.75757 -2.45105 0.49312 -3.6636 -7.84257 -2.95455 -0.59509 -13.65812 -6.1891 4.86462 3.49476 4.8042
-0.15197 0.58134 0.04154 211.83779 0 -2.47635 4.08346 2.39959 -1.85958 -1.32604 -3.61084 -2.47295 -1.25227 -11.53124 -19.42142 100.5261 112.19448 -64.21124 -6.17521 -6.48237 15.90294 15.24311 109.55445 -45.36125 -37.92195 -1.87575 -7.93359 7.81809 13.54818 -2.42053 0.54417 -3.537 -7.87463 -2.95972 -0.6099 -13.8184 -6.1947 4.86021 3.45915 4.72706
-0.15224 0.58133 0.0417 212.09988 0 -2.44505 3.99519 2.36992 -1.74361 -1.30554 -3.8947 -2.46006 -1.42315 -10.20461 -20.54586 100.9093 115.85093 -67.01876 -6.66143 -6.97874 15.7218 16.0735 110.36446 -42.70709 -36.51056 -2.473 -7.99535 7.82006 13.33527 -2.38709 0.59621 -3.40158 -7.92077 -2.96121 -0.62423 -13.98375 -6.19949 4.85175 3.41905 4.63959
-0.15257 0.58131 0.04188 212.32753 0 -2.41501 3.94863 2.33979 -1.65648 -1.35402 -4.06009 -2.44845 -1.49827 -9.19929 -21.47141 101.20487 117.17282 -68.47769 -6.87601 -7.41362 15.45938 16.71893 110.87123 -40.46534 -35.33574 -2.98725 -8.05596 7.81975 13.13884 -2.36439 0.64969 -3.27678 -7.94529 -2.97114 -0.63949 -14.13701 -6.2073 4.85379 3.38721 4.5723
-0.15304 0.58126 0.04214 212.46175 0 -2.38804 4.01087 2.30752 -1.63884 -1.57896 -3.91447 -2.43938 -1.35673 -9.1357 -21.83375 101.24133 111.89111 -65.94047 -6.31097 -7.68096 15.01621 16.81239 110.56543 -39.54118 -34.87566 -3.23375 -8.11357 7.81232 12.98055 -2.36756 0.70118 -3.19615 -7.90422 -3.00284 -0.65766 -14.26121 -6.22268 4.88239 3.37916 4.5632
-0.15357 0.58119 0.04243 212.56134 0 -2.36237 4.11386 2.27512 -1.64731 -1.86961 -3.65287 -2.43202 -1.13123 -9.39973 -21.98837 101.19095 104.36417 -62.07212 -5.48216 -7.88911 14.4999 16.71846 109.96431 -39.05252 -34.66063 -3.39231 -8.17021 7.80263 12.83971 -2.38077 0.75383 -3.12715 -7.84275 -3.04299 -0.67669 -14.3731 -6.24078 4.92127 3.37959 4.57435
-0.15407 0.58113 0.04271 212.67639 0 -2.33625 4.19734 2.24382 -1.64012 -2.12588 -3.44688 -2.4249 -0.96004 -9.50475 -22.22549 101.19147 98.141 -58.94733 -4.80376 -8.13089 14.02227 16.71875 109.51368 -38.35171 -34.32607 -3.59439 -8.22779 7.79419 12.69304 -2.3887 0.80747 -3.04842 -7.79336 -3.07966 -0.69509 -14.48915 -6.25719 4.95557 3.37618 4.57541
-0.15457 0.58107 0.04298 212.79276 0 -2.30952 4.28585 2.20808 -1.65077 -2.40314 -3.22616 -2.41332 -0.71466 -9.64482 -22.51771 101.14483 90.70046 -55.25425 -3.99583 -8.34453 13.51452 16.68476 108.988 -37.6836 -34.0168 -3.78769 -8.28331 7.78485 12.53765 -2.40012 0.85562 -2.98507 -7.73219 -3.11494 -0.71453 -14.61122 -6.27567 4.98975 3.37254 4.58004
-0.15508 0.58101 0.04327 212.89787 0 -2.28439 4.37343 2.18152 -1.63017 -2.65239 -3.00917 -2.41159 -0.6025 -9.79413 -22.64398 101.17433 85.25581 -52.41639 -3.39389 -8.60093 13.05467 16.67629 108.55035 -37.06486 -33.71825 -3.97487 -8.34272 7.77685 12.40496 -2.40671 0.9148 -2.89559 -7.69089 -3.15506 -0.73199 -14.71764 -6.29046 5.02653 3.37147 4.58212
-0.15564 0.58094 0.04357 212.98314 0 -2.26302 4.44605 2.18106 -1.51172 -2.798 -2.83556 -2.43544 -0.92327 -9.87069 -22.36054 101.44765 86.0547 -52.33595 -3.44287 -9.00979 12.74846 16.78064 108.43548 -36.43388 -33.36939 -4.18025 -8.41485 7.77295 12.32563 -2.39486 1.00831 -2.70789 -7.70708 -3.20663 -0.74373 -14.7862 -6.29412 5.06791 3.37518 4.5722
-0.15621 0.58088 0.04388 213.05769 0 -2.24329 4.51669 2.18975 -1.36156 -2.91478 -2.66945 -2.46927 -1.37353 -9.9496 -21.9158 101.79801 88.91234 -53.14616 -3.70547 -9.45957 12.49393 16.91616 108.41913 -35.84957 -33.02805 -4.37907 -8.4906 7.7705 12.26964 -2.37823 1.11207 -2.49771 -7.7445 -3.26275 -0.75344 -14.839 -6.29399 5.11152 3.38125 4.55908
-0.15677 0.58081 0.04418 213.13546 0 -2.22302 4.58955 2.19379 -1.22898 -3.05092 -2.49695 -2.49944 -1.73758 -10.03997 -21.54725 102.10541 90.71104 -53.50287 -3.85884 -9.87869 12.21387 17.04042 108.35366 -35.27368 -32.69681 -4.57158 -8.56359 7.76744 12.2059 -2.3654 1.20831 -2.31364 -7.77352 -3.31665 -0.76411 -14.89753 -6.29575 5.15409 3.38642 4.54738
